<svg width="19" height="16" viewBox="0 0 19 16" xmlns="http://www.w3.org/2000/svg"><title>twitter</title><desc>Created with Sketch.</desc><g fill="none" fill-rule="evenodd"><g fill-rule="nonzero" fill="#1DA1F2"><path d="M5.955 15.946c7.147 0 11.055-6.11 11.055-11.407 0-.175-.004-.347-.01-.52.757-.565 1.417-1.27 1.937-2.075-.696.32-1.445.534-2.23.63.8-.495 1.417-1.28 1.707-2.217-.75.46-1.582.793-2.467.974C15.237.552 14.23.065 13.11.065c-2.144 0-3.884 1.795-3.884 4.01 0 .313.034.62.1.913-3.23-.168-6.092-1.763-8.008-4.19C.984 1.392.792 2.08.792 2.815c0 1.39.686 2.62 1.73 3.337-.64-.02-1.237-.2-1.76-.5v.05c0 1.943 1.338 3.564 3.116 3.93-.327.093-.67.142-1.025.142-.25 0-.493-.025-.73-.072.494 1.593 1.93 2.752 3.63 2.784C4.422 13.56 2.746 14.2.926 14.2c-.313 0-.623-.018-.927-.055 1.72 1.137 3.76 1.8 5.956 1.8"/></g></g></svg>