<svg width="109" height="79" viewBox="0 0 109 79" xmlns="http://www.w3.org/2000/svg">
  <title>Dan Barber</title>
  <path d="M93.45 47.384c0-8.752-6.996-15.847-15.626-15.847-7.88 0-14.906 6.66-15.824 14.463v33H47v-5c-4.425 3.093-10.13 5-15.824 5C13.958 79 0 64.845 0 47.384 0 29.95 13.916 15.81 31 16h13v16H31c-8.454-.463-15.45 6.632-15.45 15.384s6.996 15.848 15.626 15.848C39.194 63.232 46.272 55.748 47 48c.136-.747 0-48 0-48h15v20c4.402-2.37 10.193-4.232 15.824-4.232C95.042 15.768 109 29.923 109 47.384 109 64.844 95.042 79 77.824 79l-12.834-.003L65 63h13c8.454.232 15.45-6.864 15.45-15.616z" fill="#fff" fill-rule="evenodd"/>
</svg>
